<svg width="95" height="95" viewBox="0 0 95 95" fill="none" xmlns="http://www.w3.org/2000/svg">
<g filter="url(#filter0_d_13:51)">
<rect x="7" y="3" width="81" height="81" rx="19" stroke="black" stroke-width="6" shape-rendering="crispEdges"/>
</g>
<path d="M64 44C64 52.2073 57.1384 59 48.5 59C39.8616 59 33 52.2073 33 44C33 35.7927 39.8616 29 48.5 29C57.1384 29 64 35.7927 64 44Z" stroke="black" stroke-width="6"/>
<ellipse cx="70" cy="21.5" rx="5" ry="4.5" fill="black"/>
<path d="M93 62C93 60.3431 91.4823 59 88.5 59C85.5177 59 84 60.3431 84 62" stroke="#FFF7F7"/>
<path d="M93 62C93 59.7909 91.4823 58 88.5 58C85.5177 58 84 59.7909 84 62" stroke="#FFF7F7"/>
<path d="M93 61C93 58.7909 91.4823 57 88.5 57C85.5177 57 84 58.7909 84 61" stroke="#FFF7F7"/>
<path d="M84.0415 48C84.0186 50.209 85.5176 52.0155 88.4998 52.0464C91.4819 52.0773 93.0181 50.3023 93.041 48.0933" stroke="#FFF7F7"/>
<path d="M84.0415 47C84.0186 49.209 85.5176 51.0155 88.4998 51.0464C91.4819 51.0773 93.0181 49.3023 93.041 47.0933" stroke="#FFF7F7"/>
<rect x="83" y="51" width="11" height="7" fill="white"/>
<defs>
<filter id="filter0_d_13:51" x="0" y="0" width="95" height="95" filterUnits="userSpaceOnUse" color-interpolation-filters="sRGB">
<feFlood flood-opacity="0" result="BackgroundImageFix"/>
<feColorMatrix in="SourceAlpha" type="matrix" values="0 0 0 0 0 0 0 0 0 0 0 0 0 0 0 0 0 0 127 0" result="hardAlpha"/>
<feOffset dy="4"/>
<feGaussianBlur stdDeviation="2"/>
<feComposite in2="hardAlpha" operator="out"/>
<feColorMatrix type="matrix" values="0 0 0 0 0 0 0 0 0 0 0 0 0 0 0 0 0 0 0.25 0"/>
<feBlend mode="normal" in2="BackgroundImageFix" result="effect1_dropShadow_13:51"/>
<feBlend mode="normal" in="SourceGraphic" in2="effect1_dropShadow_13:51" result="shape"/>
</filter>
</defs>
</svg>
